<?xml version="1.0" encoding="UTF-8" standalone="no"?>
<!-- Created with Inkscape (http://www.inkscape.org/) -->

<svg
   xmlns:dc="http://purl.org/dc/elements/1.1/"
   xmlns:cc="http://creativecommons.org/ns#"
   xmlns:rdf="http://www.w3.org/1999/02/22-rdf-syntax-ns#"
   xmlns:svg="http://www.w3.org/2000/svg"
   xmlns="http://www.w3.org/2000/svg"
   xmlns:sodipodi="http://sodipodi.sourceforge.net/DTD/sodipodi-0.dtd"
   xmlns:inkscape="http://www.inkscape.org/namespaces/inkscape"
   width="70mm"
   height="70mm"
   viewBox="0 0 70 70"
   version="1.1"
   id="svg4141"
   inkscape:version="0.92.1 r15371"
   sodipodi:docname="amw-logo.svg">
  <defs
     id="defs4135" />
  <sodipodi:namedview
     id="base"
     pagecolor="#ffffff"
     bordercolor="#666666"
     borderopacity="1.0"
     inkscape:pageopacity="0.0"
     inkscape:pageshadow="2"
     inkscape:zoom="1.4"
     inkscape:cx="40.919572"
     inkscape:cy="166.87554"
     inkscape:document-units="mm"
     inkscape:current-layer="layer1"
     showgrid="false"
     fit-margin-top="10"
     fit-margin-left="10"
     fit-margin-right="10"
     fit-margin-bottom="10"
     inkscape:window-width="1175"
     inkscape:window-height="754"
     inkscape:window-x="45"
     inkscape:window-y="72"
     inkscape:window-maximized="0" />
  <metadata
     id="metadata4138">
    <rdf:RDF>
      <cc:Work
         rdf:about="">
        <dc:format>image/svg+xml</dc:format>
        <dc:type
           rdf:resource="http://purl.org/dc/dcmitype/StillImage" />
        <dc:title></dc:title>
      </cc:Work>
    </rdf:RDF>
  </metadata>
  <g
     inkscape:label="Livello 1"
     inkscape:groupmode="layer"
     id="layer1"
     transform="translate(-70.080463,-107.39488)">
    <g
       id="g148"
       transform="matrix(0.35277777,0,0,-0.35277777,112.70254,138.90482)">
      <path
         d="M 0,0 3.041,-6.522 0,-13.045 l -5.126,-10.993 -9.393,-20.142 -3.042,6.523 z m 8.167,-17.516 9.393,-20.141 -3.041,-6.523 -9.393,20.143 z m 55.648,57.091 c 1.084,2.325 0.08,5.089 -2.247,6.174 -2.326,1.085 -5.089,0.079 -6.173,-2.247 L 44.722,20.607 42,14.768 c -1.147,1.78 -2.373,3.503 -3.675,5.164 -12.508,15.964 -31.945,26.254 -53.752,26.254 -37.647,0 -68.276,-30.628 -68.276,-68.275 0,-6.656 0.975,-13.085 2.759,-19.171 l 6.739,14.453 c -0.124,1.558 -0.206,3.128 -0.206,4.718 0,32.524 26.46,58.983 58.984,58.983 20.569,0 38.702,-10.59 49.261,-26.596 1.231,-1.867 2.355,-3.809 3.372,-5.814 1.948,-3.843 3.495,-7.922 4.568,-12.189 0.789,-3.13 1.314,-6.36 1.577,-9.664 0.124,-1.559 0.206,-3.13 0.206,-4.72 0,-32.524 -26.46,-58.984 -58.984,-58.984 -20.569,0 -38.703,10.591 -49.262,26.598 -1.231,1.867 -2.355,3.808 -3.372,5.814 L -65,-42.097 -45.373,0 l 3.041,-6.522 -11.551,-24.525 c -1.084,-2.324 -0.078,-5.089 2.248,-6.173 0.635,-0.297 1.302,-0.437 1.96,-0.437 1.75,0 3.425,0.993 4.214,2.684 l 8.256,17.457 12.519,-26.847 1.999,-4.287 1.375,-2.948 c 1.245,-2.669 3.848,-4.327 6.793,-4.327 2.946,0 5.549,1.658 6.793,4.327 L 0,-35.03 7.725,-51.598 c 1.244,-2.669 3.847,-4.327 6.794,-4.327 2.945,0 5.548,1.658 6.793,4.327 l 1.374,2.948 5.126,10.993 9.922,21.285 C 37.2,-11.37 35.967,-6.577 34.146,-2.081 L 22.686,-26.664 13.294,-6.522 8.168,4.471 6.793,7.418 c -1.244,2.67 -3.848,4.328 -6.794,4.328 -2.945,0 -5.549,-1.659 -6.792,-4.328 l -15.894,-34.082 -11.259,24.145 -4.633,9.937 c -1.245,2.67 -3.848,4.328 -6.794,4.328 -2.946,0 -5.549,-1.659 -6.793,-4.328 l -16.423,-35.225 -4.04,-8.665 -5.687,-12.196 -3.043,-6.526 -13.316,-28.56 c -1.084,-2.325 -0.078,-5.089 2.247,-6.174 2.326,-1.087 5.09,-0.079 6.175,2.248 l 10.675,22.897 2.723,5.839 c 1.146,-1.781 2.372,-3.503 3.674,-5.165 12.508,-15.966 31.946,-26.256 53.754,-26.256 37.647,0 68.276,30.628 68.276,68.276 0,6.656 -0.976,13.086 -2.76,19.174 -0.742,2.53 -1.61,5.007 -2.628,7.407 l 3.042,6.527 z"
         style="fill:#231f20;fill-opacity:1;fill-rule:nonzero;stroke:none"
         id="path150"
         inkscape:connector-curvature="0" />
    </g>
    <g
       id="g152"
       transform="matrix(0.35277777,0,0,-0.35277777,80.332607,149.31345)">
      <path
         d="M 0,0 C 0.149,0 0.298,0.025 0.441,0.078 0.765,0.195 1.022,0.433 1.168,0.744 1.313,1.055 1.33,1.404 1.212,1.728 1.094,2.052 0.858,2.311 0.545,2.456 L -12.332,8.46 -11.054,9.057 -0.543,4.108 C -0.232,3.964 0.118,3.947 0.441,4.065 0.765,4.184 1.023,4.42 1.168,4.731 c 0.081,0.173 0.121,0.356 0.121,0.544 0,0.498 -0.292,0.957 -0.743,1.168 l -8.554,4.034 8.553,3.988 c 0.452,0.211 0.744,0.67 0.744,1.168 0,0.188 -0.04,0.371 -0.121,0.544 -0.146,0.311 -0.403,0.548 -0.727,0.666 -0.322,0.117 -0.673,0.101 -0.984,-0.043 l -14.013,-6.534 c -0.709,-0.331 -1.15,-1.023 -1.15,-1.806 0,-0.782 0.441,-1.475 1.15,-1.805 L -0.543,0.121 C -0.371,0.04 -0.186,0 0,0"
         style="fill:#231f20;fill-opacity:1;fill-rule:nonzero;stroke:none"
         id="path154"
         inkscape:connector-curvature="0" />
    </g>
    <g
       id="g156"
       transform="matrix(0.35277777,0,0,-0.35277777,92.124453,121.197)">
      <path
         d="M 0,0 C 0.003,-0.01 0.006,-0.021 0.011,-0.029 L 3.283,-6.45 C 3.29,-6.466 3.3,-6.48 3.317,-6.506 c 0.161,-0.28 0.414,-0.488 0.716,-0.586 0.13,-0.043 0.264,-0.064 0.398,-0.064 0.202,0 0.402,0.048 0.588,0.142 l 9.134,4.655 c 0.306,0.155 0.534,0.422 0.64,0.749 0.106,0.328 0.078,0.677 -0.078,0.984 -0.087,0.169 -0.206,0.314 -0.354,0.43 -0.393,0.307 -0.935,0.36 -1.379,0.134 L 4.993,-4.133 2.891,-0.008 7.943,2.566 C 8.249,2.723 8.476,2.988 8.583,3.316 8.689,3.644 8.661,3.993 8.505,4.3 8.419,4.469 8.3,4.613 8.151,4.73 7.758,5.037 7.216,5.091 6.772,4.863 L 1.721,2.29 -0.382,6.415 7.415,10.386 c 0.306,0.156 0.533,0.423 0.64,0.75 0.106,0.328 0.078,0.677 -0.078,0.983 -0.086,0.17 -0.205,0.315 -0.353,0.431 -0.395,0.307 -0.936,0.36 -1.38,0.134 L -2.7,8.128 c -0.306,-0.156 -0.534,-0.423 -0.64,-0.75 -0.106,-0.327 -0.078,-0.677 0.087,-1 z"
         style="fill:#231f20;fill-opacity:1;fill-rule:nonzero;stroke:none"
         id="path158"
         inkscape:connector-curvature="0" />
    </g>
    <g
       id="g160"
       transform="matrix(0.35277777,0,0,-0.35277777,75.695839,139.19452)">
      <path
         d="m 0,0 v -0.001 0 z M 3.809,11.826 H 3.808 l 0.001,10e-4 z M 13.204,2.119 V 2.118 Z M 13.388,2.4 h 10e-4 z m -13.603,-3.705 0.027,-0.046 c 0.012,-0.02 0.023,-0.04 0.038,-0.061 l 0.034,-0.046 c 0.012,-0.018 0.026,-0.035 0.04,-0.053 l 0.05,-0.055 c 0.012,-0.014 0.024,-0.027 0.035,-0.038 L 0.047,-1.64 c 0.018,-0.016 0.036,-0.033 0.056,-0.048 l 0.038,-0.03 c 0.021,-0.015 0.042,-0.031 0.064,-0.046 l 0.049,-0.03 C 0.273,-1.805 0.292,-1.816 0.311,-1.826 L 0.423,-1.88 c 0.032,-0.013 0.066,-0.024 0.126,-0.045 l 13.78,-4.213 c 0.125,-0.038 0.252,-0.056 0.379,-0.056 0.208,0 0.414,0.05 0.602,0.15 0.304,0.162 0.527,0.433 0.627,0.761 0.056,0.182 0.071,0.369 0.044,0.555 -0.068,0.494 -0.421,0.908 -0.898,1.054 l -9.803,2.996 7.472,2.334 c 0.036,0.013 0.072,0.027 0.107,0.041 l 0.042,0.02 c 0.031,0.014 0.061,0.031 0.098,0.052 0.002,0.001 0.031,0.018 0.033,0.019 0.036,0.024 0.071,0.048 0.105,0.074 0.053,0.041 0.101,0.085 0.145,0.132 l 0.036,0.042 c 0.027,0.031 0.052,0.063 0.077,0.098 l 0.038,0.054 c 0.019,0.032 0.037,0.064 0.062,0.111 l 0.022,0.043 c 0.015,0.034 0.029,0.068 0.044,0.11 0.013,0.015 0.019,0.032 0.019,0.06 0.016,0.051 0.026,0.102 0.036,0.159 l 0.008,0.059 c 0.004,0.038 0.007,0.076 0.008,0.112 0,0.022 0,0.046 0,0.067 -10e-4,0.04 -0.004,0.08 -0.008,0.117 -0.002,0.02 -0.005,0.039 -0.008,0.057 -0.01,0.064 -0.024,0.129 -0.045,0.19 -0.013,0.042 -0.029,0.083 -0.046,0.123 L 13.396,3.339 13.505,3.437 C 13.49,3.469 13.474,3.5 13.456,3.531 L 13.434,3.565 C 13.412,3.6 13.389,3.634 13.353,3.681 L 8.471,9.807 18.287,6.806 c 0.328,-0.1 0.676,-0.069 0.981,0.094 0.303,0.162 0.526,0.431 0.627,0.76 0.055,0.181 0.07,0.368 0.044,0.556 C 19.87,8.71 19.517,9.123 19.04,9.269 L 5.251,13.484 c 0,0 -0.063,0.017 -0.065,0.018 -0.018,0.004 -0.035,0.009 -0.053,0.013 -0.022,0.005 -0.045,0.007 -0.076,0.012 -0.002,0 -0.045,0.006 -0.046,0.006 -0.03,0.003 -0.058,0.005 -0.085,0.006 -0.002,0 -0.037,0.002 -0.037,0.002 -0.031,0 -0.059,-0.001 -0.087,-0.003 L 4.763,13.536 C 4.736,13.534 4.711,13.53 4.676,13.525 4.674,13.524 4.639,13.52 4.639,13.52 4.615,13.515 4.593,13.51 4.553,13.5 L 4.215,13.359 C 4.214,13.358 4.174,13.335 4.173,13.333 4.142,13.313 4.112,13.292 4.096,13.276 4.086,13.271 4.078,13.266 4.07,13.259 V 13.26 C 3.968,13.179 3.88,13.083 3.807,12.976 3.795,12.958 3.784,12.939 3.767,12.91 3.758,12.896 3.749,12.883 3.742,12.869 3.722,12.832 3.703,12.793 3.684,12.747 3.669,12.709 3.654,12.672 3.652,12.655 3.648,12.647 3.645,12.639 3.642,12.63 3.641,12.629 3.625,12.566 3.625,12.565 3.621,12.548 3.615,12.53 3.612,12.513 L 3.599,12.435 c 0,-0.002 -0.005,-0.04 -0.005,-0.042 C 3.59,12.361 3.588,12.329 3.586,12.27 c -10e-4,-0.034 0,-0.066 0.004,-0.126 0.002,-0.031 0.007,-0.061 0.012,-0.088 0,-0.002 0.005,-0.036 0.005,-0.038 0.006,-0.027 0.012,-0.053 0.02,-0.088 0.001,-0.004 0.009,-0.035 0.01,-0.039 l 0.022,-0.066 c 0.002,-0.003 0.019,-0.051 0.02,-0.054 l 0.027,-0.06 C 3.707,11.709 3.729,11.663 3.729,11.662 3.74,11.642 3.751,11.621 3.77,11.592 3.771,11.59 3.792,11.554 3.793,11.553 3.812,11.522 3.833,11.494 3.874,11.44 L 10.166,3.547 0.528,0.538 C 0.49,0.525 0.453,0.512 0.413,0.495 L 0.369,0.475 C 0.347,0.464 0.325,0.454 0.304,0.443 0.287,0.434 0.271,0.424 0.233,0.401 L 0.197,0.378 C 0.178,0.364 0.158,0.351 0.134,0.332 L -0.117,0.078 C -0.13,0.06 -0.144,0.041 -0.158,0.021 l -0.023,-0.039 c -0.014,-0.021 -0.027,-0.044 -0.04,-0.067 -0.009,-0.019 -0.018,-0.037 -0.032,-0.068 l -0.021,-0.045 c -0.011,-0.027 -0.02,-0.054 -0.039,-0.109 l -0.002,-0.005 v -0.001 c -0.001,-0.002 -0.001,-0.004 -0.002,-0.006 -0.009,-0.03 -0.016,-0.059 -0.024,-0.1 -0.004,-0.007 -0.006,-0.015 -0.007,-0.022 -0.008,-0.041 -0.014,-0.083 -0.018,-0.124 -0.021,-0.213 0.012,-0.43 0.11,-0.657 0.013,-0.028 0.026,-0.056 0.041,-0.083"
         style="fill:#231f20;fill-opacity:1;fill-rule:nonzero;stroke:none"
         id="path162"
         inkscape:connector-curvature="0" />
    </g>
    <g
       id="g164"
       transform="matrix(0.35277777,0,0,-0.35277777,79.202098,131.03484)">
      <path
         d="m 0,0 7.5,-4.691 c 1.228,-0.767 2.603,-1.107 3.951,-1.059 2.257,0.079 4.439,1.241 5.724,3.298 0.993,1.589 1.307,3.472 0.887,5.302 -0.422,1.83 -1.528,3.383 -3.115,4.375 L 7.446,11.916 C 7.155,12.098 6.812,12.155 6.474,12.078 6.139,12.001 5.854,11.797 5.672,11.506 5.49,11.214 5.432,10.869 5.509,10.534 5.586,10.198 5.79,9.913 6.081,9.731 l 7.501,-4.69 c 1.005,-0.629 1.705,-1.612 1.972,-2.771 0.267,-1.16 0.067,-2.352 -0.561,-3.358 -0.629,-1.007 -1.614,-1.709 -2.772,-1.976 -1.16,-0.269 -2.35,-0.071 -3.355,0.557 L 1.365,2.185 C 1.074,2.367 0.729,2.424 0.394,2.347 0.058,2.27 -0.227,2.066 -0.409,1.774 -0.591,1.482 -0.649,1.138 -0.572,0.802 -0.495,0.467 -0.292,0.182 0,0"
         style="fill:#231f20;fill-opacity:1;fill-rule:nonzero;stroke:none"
         id="path166"
         inkscape:connector-curvature="0" />
    </g>
    <g
       id="g168"
       transform="matrix(0.35277777,0,0,-0.35277777,107.19797,120.08871)">
      <path
         d="m 0,0 c 0.168,-0.089 0.349,-0.14 0.537,-0.149 0.022,-0.001 0.044,-0.002 0.067,-0.002 0.473,0 0.915,0.263 1.138,0.683 l 7.47,14.048 c 0.161,0.303 0.194,0.651 0.094,0.981 C 9.205,15.89 8.982,16.16 8.679,16.321 8.375,16.482 8.028,16.517 7.698,16.417 7.369,16.316 7.099,16.093 6.937,15.789 L -0.532,1.742 C -0.694,1.438 -0.728,1.09 -0.627,0.761 -0.526,0.432 -0.304,0.161 0,0"
         style="fill:#231f20;fill-opacity:1;fill-rule:nonzero;stroke:none"
         id="path170"
         inkscape:connector-curvature="0" />
    </g>
    <g
       id="g172"
       transform="matrix(0.35277777,0,0,-0.35277777,118.65048,122.67842)">
      <path
         d="m 0,0 c 0.176,-0.082 0.36,-0.12 0.543,-0.12 0.485,0 0.951,0.275 1.169,0.743 l 6.095,13.068 c 0.145,0.312 0.16,0.662 0.043,0.985 C 7.731,15 7.495,15.258 7.184,15.403 6.871,15.549 6.521,15.564 6.199,15.446 5.876,15.329 5.617,15.092 5.472,14.78 L -0.623,1.712 C -0.769,1.399 -0.783,1.05 -0.666,0.727 -0.548,0.403 -0.312,0.146 0,0"
         style="fill:#231f20;fill-opacity:1;fill-rule:nonzero;stroke:none"
         id="path174"
         inkscape:connector-curvature="0" />
    </g>
    <g
       id="g176"
       transform="matrix(0.35277777,0,0,-0.35277777,111.89845,120.52728)">
      <path
         d="m 0,0 c 0.398,-0.098 0.809,-0.007 1.126,0.25 l 4.065,3.296 4.646,-5.732 c 0.255,-0.313 0.628,-0.476 1.004,-0.476 0.286,0 0.573,0.094 0.811,0.287 0.22,0.178 0.372,0.416 0.44,0.689 0.098,0.399 0.008,0.809 -0.249,1.126 l -4.647,5.731 7.944,6.44 c 0.268,0.217 0.435,0.526 0.471,0.868 0.035,0.343 -0.064,0.68 -0.281,0.947 -0.217,0.268 -0.525,0.435 -0.868,0.471 -0.347,0.035 -0.68,-0.064 -0.947,-0.281 L 2.5,4.687 5.053,14.926 c 0.121,0.485 -0.052,1.002 -0.441,1.316 -0.146,0.119 -0.315,0.203 -0.499,0.249 -0.694,0.173 -1.392,-0.25 -1.564,-0.94 L -0.937,1.568 C -0.94,1.558 -0.941,1.547 -0.941,1.536 -1.03,1.146 -0.939,0.748 -0.689,0.439 -0.511,0.221 -0.272,0.068 0,0"
         style="fill:#231f20;fill-opacity:1;fill-rule:nonzero;stroke:none"
         id="path178"
         inkscape:connector-curvature="0" />
    </g>
    <g
       id="g180"
       transform="matrix(0.35277777,0,0,-0.35277777,100.65588,120.50661)">
      <path
         d="m 0,0 c 0.38,-0.543 0.981,-0.851 1.623,-0.851 0.118,0 0.236,0.01 0.355,0.032 0.771,0.135 1.376,0.689 1.578,1.445 l 1.09,4.065 2.413,-3.447 c 0.45,-0.641 1.212,-0.955 1.978,-0.819 0.771,0.136 1.375,0.689 1.577,1.446 l 4.003,14.934 c 0.089,0.332 0.044,0.679 -0.129,0.977 -0.172,0.298 -0.449,0.511 -0.782,0.6 -0.332,0.09 -0.68,0.044 -0.977,-0.128 -0.298,-0.172 -0.511,-0.45 -0.601,-0.782 L 8.451,3.748 5.516,7.939 7.558,15.561 C 7.647,15.893 7.602,16.24 7.43,16.538 7.258,16.835 6.98,17.049 6.648,17.138 6.315,17.227 5.968,17.182 5.67,17.01 5.372,16.837 5.159,16.56 5.07,16.228 L 1.393,2.504 0.584,3.658 3.631,14.868 c 0.089,0.333 0.043,0.68 -0.129,0.978 -0.171,0.298 -0.449,0.51 -0.782,0.6 C 2.537,16.495 2.35,16.503 2.164,16.471 1.672,16.384 1.272,16.017 1.143,15.536 l -2.486,-9.125 -5.414,7.731 c -0.286,0.409 -0.789,0.616 -1.279,0.53 -0.185,-0.032 -0.359,-0.104 -0.515,-0.214 -0.282,-0.197 -0.47,-0.492 -0.53,-0.831 -0.06,-0.339 0.017,-0.681 0.213,-0.962 z"
         style="fill:#231f20;fill-opacity:1;fill-rule:nonzero;stroke:none"
         id="path182"
         inkscape:connector-curvature="0" />
    </g>
    <g
       id="g184"
       transform="matrix(0.35277777,0,0,-0.35277777,88.292653,123.42324)">
      <path
         d="M 0,0 -5.271,-3.682 C -6.31,-4.407 -7.748,-4.149 -8.476,-3.107 -9.2,-2.07 -8.953,-0.636 -7.924,0.089 L -2.64,3.78 c 0.585,0.408 0.728,1.218 0.319,1.805 -0.41,0.586 -1.22,0.73 -1.804,0.322 l -5.29,-3.694 c -2.193,-1.547 -2.725,-4.599 -1.185,-6.804 1.547,-2.215 4.604,-2.761 6.814,-1.218 l 5.272,3.682 C 2.525,-1.4 3.963,-1.657 4.691,-2.7 5.417,-3.739 5.169,-5.174 4.137,-5.898 l -6.348,-4.435 c -0.585,-0.408 -0.728,-1.218 -0.319,-1.805 0.41,-0.586 1.219,-0.73 1.804,-0.322 l 6.352,4.437 c 2.196,1.546 2.729,4.599 1.188,6.806 C 5.268,0.997 2.21,1.544 0,0"
         style="fill:#231f20;fill-opacity:1;fill-rule:nonzero;stroke:none"
         id="path186"
         inkscape:connector-curvature="0" />
    </g>
  </g>
</svg>
