<?xml version="1.0" encoding="UTF-8" standalone="no"?>
<!-- Created with Inkscape (http://www.inkscape.org/) -->

<svg
   xmlns:dc="http://purl.org/dc/elements/1.1/"
   xmlns:cc="http://creativecommons.org/ns#"
   xmlns:rdf="http://www.w3.org/1999/02/22-rdf-syntax-ns#"
   xmlns:svg="http://www.w3.org/2000/svg"
   xmlns="http://www.w3.org/2000/svg"
   xmlns:sodipodi="http://sodipodi.sourceforge.net/DTD/sodipodi-0.dtd"
   xmlns:inkscape="http://www.inkscape.org/namespaces/inkscape"
   width="360"
   height="80"
   viewBox="0 0 95.249997 21.166667"
   version="1.1"
   id="svg4257"
   sodipodi:docname="navlogo.svg"
   inkscape:export-filename="/home/melmoth/amw/repo/amw/site_files/navlogo.png"
   inkscape:export-xdpi="145.14"
   inkscape:export-ydpi="145.14"
   inkscape:version="0.92.1 r15371">
  <defs
     id="defs4251" />
  <sodipodi:namedview
     id="base"
     pagecolor="#ffffff"
     bordercolor="#666666"
     borderopacity="1.0"
     inkscape:pageopacity="0.0"
     inkscape:pageshadow="2"
     inkscape:zoom="1.979899"
     inkscape:cx="210.01248"
     inkscape:cy="90.488895"
     inkscape:document-units="mm"
     inkscape:current-layer="layer1"
     showgrid="false"
     units="px"
     width="400px"
     inkscape:window-width="1488"
     inkscape:window-height="633"
     inkscape:window-x="51"
     inkscape:window-y="64"
     inkscape:window-maximized="0" />
  <metadata
     id="metadata4254">
    <rdf:RDF>
      <cc:Work
         rdf:about="">
        <dc:format>image/svg+xml</dc:format>
        <dc:type
           rdf:resource="http://purl.org/dc/dcmitype/StillImage" />
        <dc:title></dc:title>
      </cc:Work>
    </rdf:RDF>
  </metadata>
  <g
     inkscape:label="Livello 1"
     inkscape:groupmode="layer"
     id="layer1"
     transform="translate(0,-275.83333)">
    <g
       id="g112"
       transform="matrix(0.13871425,0,0,-0.13871425,30.512232,283.22696)">
      <path
         d="m 0,0 c -0.952,2.043 -2.944,3.312 -5.197,3.312 -2.254,0 -4.245,-1.27 -5.197,-3.312 l -20.238,-43.4 c -0.829,-1.779 -0.06,-3.893 1.719,-4.723 1.78,-0.832 3.894,-0.06 4.724,1.719 l 18.992,40.729 2.326,-4.989 -15.41,-32.737 c -0.829,-1.778 -0.059,-3.893 1.719,-4.723 0.487,-0.227 0.997,-0.334 1.5,-0.334 1.339,0 2.621,0.76 3.224,2.054 L 1.049,-19.07 13.795,-46.404 c 0.603,-1.293 1.886,-2.053 3.224,-2.053 0.502,0 1.014,0.108 1.5,0.334 1.779,0.83 2.548,2.944 1.719,4.723 z"
         style="fill:#231f20;fill-opacity:1;fill-rule:nonzero;stroke:none"
         id="path114"
         inkscape:connector-curvature="0" />
    </g>
    <g
       id="g116"
       transform="matrix(0.13871425,0,0,-0.13871425,65.538799,283.75487)">
      <path
         d="M 0,0 C 1.962,0 3.554,1.593 3.554,3.558 3.554,4.095 3.436,4.604 3.223,5.06 2.657,6.274 1.427,7.116 -0.001,7.116 l -29.761,0.001 c -1.962,0 -3.553,-1.593 -3.553,-3.558 0,-0.011 0.003,-0.021 0.003,-0.033 0,-0.008 -0.002,-0.017 -0.002,-0.025 v -22.264 c 0,-0.002 -10e-4,-0.003 -10e-4,-0.004 0,-0.001 10e-4,-0.002 10e-4,-0.004 l -10e-4,-22.322 v -10e-4 c 0,-0.061 0.015,-0.117 0.018,-0.177 0.045,-0.911 0.419,-1.735 1.023,-2.339 0.642,-0.644 1.531,-1.042 2.513,-1.042 0,0 0.007,10e-4 0.01,10e-4 H 2 c 1.963,-10e-4 3.554,1.592 3.554,3.557 10e-4,0.537 -0.118,1.046 -0.331,1.502 -0.566,1.215 -1.796,2.057 -3.224,2.056 l -28.206,0.001 v 15.21 l 17.995,-0.001 c 1.963,0 3.554,1.593 3.554,3.558 0.001,0.537 -0.118,1.046 -0.331,1.502 -0.566,1.215 -1.796,2.057 -3.223,2.057 h -17.995 l 0.001,15.21 z"
         style="fill:#231f20;fill-opacity:1;fill-rule:nonzero;stroke:none"
         id="path118"
         inkscape:connector-curvature="0" />
    </g>
    <g
       id="g120"
       transform="matrix(0.13871425,0,0,-0.13871425,42.079432,283.21458)">
      <path
         d="M 0,0 C -0.006,0.072 -0.018,0.143 -0.029,0.213 -0.036,0.255 -0.041,0.297 -0.048,0.338 -0.063,0.417 -0.083,0.494 -0.103,0.571 -0.112,0.604 -0.119,0.638 -0.129,0.671 -0.151,0.748 -0.178,0.822 -0.206,0.897 -0.218,0.931 -0.229,0.964 -0.243,0.998 -0.271,1.067 -0.302,1.133 -0.333,1.2 -0.352,1.239 -0.37,1.278 -0.39,1.316 -0.42,1.375 -0.454,1.431 -0.488,1.487 -0.514,1.531 -0.54,1.575 -0.567,1.618 -0.6,1.668 -0.636,1.715 -0.671,1.764 -0.704,1.809 -0.737,1.855 -0.772,1.899 -0.81,1.945 -0.85,1.988 -0.889,2.032 -0.926,2.074 -0.962,2.117 -1.002,2.157 -1.05,2.206 -1.102,2.252 -1.153,2.298 -1.187,2.329 -1.219,2.361 -1.254,2.391 -1.331,2.454 -1.41,2.514 -1.491,2.571 -1.503,2.58 -1.515,2.59 -1.527,2.599 -1.529,2.6 -1.53,2.601 -1.532,2.601 -1.822,2.8 -2.143,2.958 -2.487,3.064 -2.549,3.083 -2.611,3.097 -2.674,3.112 -2.724,3.125 -2.772,3.14 -2.823,3.15 c -0.115,0.024 -0.233,0.041 -0.35,0.054 -0.006,0 -0.012,0 -0.018,10e-4 -0.112,0.01 -0.224,0.016 -0.335,0.016 L -3.537,3.222 C -3.578,3.222 -3.618,3.217 -3.658,3.216 -3.729,3.213 -3.799,3.212 -3.869,3.206 -3.945,3.199 -4.02,3.187 -4.095,3.175 -4.131,3.169 -4.168,3.165 -4.205,3.158 -4.291,3.142 -4.375,3.12 -4.458,3.098 -4.484,3.091 -4.51,3.085 -4.536,3.078 -4.62,3.054 -4.703,3.024 -4.785,2.994 -4.811,2.984 -4.836,2.976 -4.862,2.965 -4.938,2.935 -5.013,2.9 -5.086,2.864 -5.118,2.849 -5.149,2.835 -5.18,2.819 -5.246,2.785 -5.31,2.747 -5.373,2.708 -5.41,2.687 -5.447,2.665 -5.483,2.642 -5.539,2.605 -5.593,2.565 -5.646,2.525 -5.687,2.496 -5.727,2.467 -5.766,2.436 -5.816,2.395 -5.864,2.351 -5.913,2.308 -5.95,2.274 -5.988,2.241 -6.024,2.206 -6.077,2.154 -6.126,2.1 -6.175,2.045 -6.203,2.014 -6.232,1.984 -6.26,1.952 -6.322,1.877 -6.381,1.799 -6.438,1.719 -6.448,1.705 -6.459,1.692 -6.469,1.678 L -6.476,1.668 C -6.48,1.661 -6.485,1.654 -6.49,1.646 L -24.533,-24.663 -42.502,1.642 c -0.007,0.01 -0.013,0.019 -0.02,0.028 l -0.001,0.002 c -0.003,0.005 -0.006,0.008 -0.009,0.012 -0.063,0.091 -0.13,0.179 -0.2,0.263 -0.031,0.038 -0.066,0.073 -0.098,0.108 -0.044,0.049 -0.087,0.098 -0.134,0.144 -0.045,0.045 -0.093,0.085 -0.14,0.127 -0.038,0.034 -0.076,0.069 -0.116,0.102 -0.05,0.041 -0.103,0.078 -0.156,0.116 -0.041,0.03 -0.081,0.06 -0.123,0.088 -0.051,0.034 -0.103,0.064 -0.155,0.095 -0.049,0.028 -0.096,0.057 -0.146,0.084 -0.047,0.024 -0.095,0.045 -0.142,0.068 -0.058,0.027 -0.116,0.055 -0.175,0.079 -0.043,0.018 -0.086,0.032 -0.128,0.047 -0.067,0.024 -0.132,0.049 -0.2,0.069 -0.042,0.012 -0.086,0.022 -0.128,0.032 -0.068,0.018 -0.136,0.036 -0.205,0.049 -0.054,0.011 -0.107,0.017 -0.161,0.025 -0.06,0.008 -0.118,0.019 -0.179,0.025 -0.084,0.008 -0.169,0.01 -0.254,0.013 -0.028,0 -0.057,0.004 -0.086,0.004 h -0.007 c -0.115,0 -0.231,-0.006 -0.347,-0.017 0,0 -0.006,-10e-4 -0.01,-10e-4 -0.114,-0.012 -0.228,-0.029 -0.342,-0.052 -0.594,-0.119 -1.133,-0.387 -1.58,-0.763 -0.022,-0.019 -0.043,-0.04 -0.065,-0.059 -0.064,-0.057 -0.126,-0.113 -0.185,-0.173 -0.035,-0.036 -0.068,-0.074 -0.101,-0.111 -0.043,-0.047 -0.087,-0.095 -0.127,-0.145 -0.035,-0.044 -0.067,-0.089 -0.1,-0.134 -0.035,-0.048 -0.071,-0.095 -0.103,-0.144 -0.03,-0.045 -0.056,-0.092 -0.084,-0.138 -0.032,-0.054 -0.064,-0.107 -0.094,-0.163 -0.022,-0.042 -0.042,-0.086 -0.062,-0.13 -0.029,-0.061 -0.059,-0.122 -0.084,-0.185 -0.017,-0.041 -0.031,-0.083 -0.045,-0.125 -0.025,-0.066 -0.049,-0.132 -0.07,-0.201 -0.012,-0.044 -0.022,-0.089 -0.034,-0.133 -0.017,-0.066 -0.034,-0.132 -0.047,-0.199 -0.012,-0.058 -0.018,-0.117 -0.027,-0.176 -0.007,-0.054 -0.017,-0.108 -0.023,-0.163 -0.009,-0.096 -0.013,-0.194 -0.014,-0.291 0,-0.017 -0.003,-0.034 -0.003,-0.051 v -0.009 c 0,-0.008 0,-0.015 0,-0.023 l -10e-4,-44.629 c 0,-1.963 1.591,-3.554 3.555,-3.554 0.535,-0.001 1.044,0.118 1.5,0.331 1.213,0.566 2.054,1.796 2.053,3.223 l 10e-4,33.157 14.43,-21.124 c 0.012,-0.017 0.026,-0.032 0.038,-0.049 0.061,-0.087 0.127,-0.171 0.197,-0.253 0.027,-0.031 0.054,-0.063 0.082,-0.093 0.064,-0.07 0.132,-0.137 0.203,-0.202 0.032,-0.03 0.063,-0.062 0.096,-0.09 0.087,-0.076 0.18,-0.147 0.277,-0.215 0.15,-0.105 0.307,-0.197 0.469,-0.277 0.045,-0.023 0.091,-0.041 0.138,-0.061 0.102,-0.045 0.205,-0.086 0.31,-0.121 0.06,-0.02 0.12,-0.039 0.18,-0.055 0.099,-0.028 0.199,-0.049 0.3,-0.068 0.058,-0.011 0.115,-0.023 0.173,-0.031 0.147,-0.02 0.294,-0.031 0.442,-0.032 0.009,-0.001 0.018,-0.002 0.027,-0.002 h 0.003 0.003 c 0.009,0 0.017,10e-4 0.026,0.002 0.148,10e-4 0.295,0.012 0.441,0.031 0.058,0.008 0.115,0.021 0.173,0.032 0.1,0.018 0.2,0.04 0.298,0.067 0.061,0.017 0.121,0.035 0.181,0.055 0.104,0.034 0.206,0.075 0.306,0.119 0.048,0.021 0.095,0.039 0.142,0.062 0.159,0.079 0.314,0.169 0.462,0.272 0.099,0.069 0.194,0.142 0.284,0.22 0.031,0.026 0.06,0.056 0.09,0.084 0.073,0.067 0.144,0.136 0.21,0.208 0.027,0.029 0.052,0.059 0.077,0.088 0.072,0.084 0.139,0.17 0.202,0.259 0.012,0.016 0.025,0.029 0.036,0.045 l 14.517,21.167 -10e-4,-33.195 c 0,-1.963 1.591,-3.554 3.554,-3.554 0.536,-0.001 1.045,0.118 1.5,0.331 1.213,0.566 2.054,1.796 2.054,3.223 l 0.001,44.661 c 0,0.046 -0.005,0.09 -0.007,0.135 C 0.008,-0.131 0.006,-0.065 0,0"
         style="fill:#231f20;fill-opacity:1;fill-rule:nonzero;stroke:none"
         id="path122"
         inkscape:connector-curvature="0" />
    </g>
    <g
       id="g124"
       transform="matrix(0.13871425,0,0,-0.13871425,49.904801,282.76762)">
      <path
         d="m 0,0 c -1.962,0 -3.554,-1.59 -3.554,-3.55 v -27.762 c 0,-7.83 -6.378,-14.201 -14.217,-14.201 -7.839,0 -14.217,6.371 -14.217,14.201 V -3.55 c 0,1.96 -1.591,3.55 -3.554,3.55 -1.962,0 -3.554,-1.59 -3.554,-3.55 v -27.762 c 0,-11.746 9.566,-21.301 21.325,-21.301 11.759,0 21.325,9.555 21.325,21.301 V -3.55 C 3.554,-1.59 1.963,0 0,0"
         style="fill:#231f20;fill-opacity:1;fill-rule:nonzero;stroke:none"
         id="path126"
         inkscape:connector-curvature="0" />
    </g>
    <g
       id="g128"
       transform="matrix(0.13871425,0,0,-0.13871425,81.53144,282.82214)">
      <path
         d="m 0,0 c -1.779,0.832 -3.894,0.061 -4.724,-1.719 l -20.825,-44.658 c -0.829,-1.779 -0.059,-3.894 1.72,-4.723 0.485,-0.227 0.996,-0.334 1.499,-0.334 1.339,0 2.621,0.76 3.224,2.053 L 1.72,-4.723 C 2.549,-2.944 1.779,-0.83 0,0"
         style="fill:#231f20;fill-opacity:1;fill-rule:nonzero;stroke:none"
         id="path130"
         inkscape:connector-curvature="0" />
    </g>
    <g
       id="g132"
       transform="matrix(0.13871425,0,0,-0.13871425,92.0774,282.77566)">
      <path
         d="m 0,0 c -1.964,0.002 -3.555,-1.59 -3.555,-3.554 v -44.661 c 0,-1.963 1.591,-3.556 3.555,-3.554 1.963,0 3.554,1.591 3.554,3.554 V -3.554 C 3.554,-1.591 1.963,0 0,0"
         style="fill:#231f20;fill-opacity:1;fill-rule:nonzero;stroke:none"
         id="path134"
         inkscape:connector-curvature="0" />
    </g>
    <g
       id="g136"
       transform="matrix(0.13871425,0,0,-0.13871425,89.02634,289.06793)">
      <path
         d="M 0,0 -18.604,14.003 0.704,39.657 C 1.887,41.229 1.572,43.462 0,44.645 -1.571,45.828 -3.804,45.514 -4.987,43.941 L -32.182,7.81 -32.183,41.799 c 10e-4,1.43 -0.841,2.664 -2.057,3.231 -0.457,0.213 -0.967,0.332 -1.504,0.331 -1.968,0 -3.563,-1.594 -3.562,-3.561 V -2.833 h 0.013 c -0.003,-1.084 0.475,-2.157 1.407,-2.859 0.642,-0.482 1.394,-0.716 2.14,-0.716 1.08,0 2.148,0.49 2.849,1.42 l 10.008,13.3 18.605,-14.003 c 1.572,-1.184 3.805,-0.869 4.988,0.703 0.483,0.642 0.716,1.394 0.716,2.14 C 1.42,-1.768 0.931,-0.7 0,0"
         style="fill:#231f20;fill-opacity:1;fill-rule:nonzero;stroke:none"
         id="path138"
         inkscape:connector-curvature="0" />
    </g>
    <g
       id="g140"
       transform="matrix(0.13871425,0,0,-0.13871425,77.797668,282.82214)">
      <path
         d="m 0,0 c -1.779,0.832 -3.894,0.061 -4.723,-1.719 l -18.992,-40.729 -7.179,15.393 10.415,22.332 c 0.83,1.779 0.06,3.893 -1.719,4.723 -1.78,0.832 -3.894,0.061 -4.724,-1.719 l -18.992,-40.729 -2.326,4.989 15.41,32.737 c 0.829,1.779 0.059,3.893 -1.72,4.722 -0.486,0.228 -0.996,0.335 -1.5,0.335 -1.338,0 -2.62,-0.76 -3.223,-2.053 L -52.16,-29.053 -64.906,-1.719 c -0.604,1.294 -1.886,2.053 -3.224,2.053 -0.503,0 -1.014,-0.107 -1.5,-0.334 -1.779,-0.83 -2.549,-2.944 -1.719,-4.723 l 20.238,-43.4 c 0.952,-2.043 2.944,-3.311 5.197,-3.311 2.254,0 4.245,1.269 5.196,3.311 l 5.904,12.658 5.902,-12.658 c 0.952,-2.043 2.943,-3.311 5.197,-3.311 2.254,0 4.245,1.269 5.196,3.311 L 1.72,-4.723 C 2.549,-2.944 1.779,-0.83 0,0"
         style="fill:#231f20;fill-opacity:1;fill-rule:nonzero;stroke:none"
         id="path142"
         inkscape:connector-curvature="0" />
    </g>
    <g
       id="g144"
       transform="matrix(0.13871425,0,0,-0.13871425,56.950902,285.8641)">
      <path
         d="m 0,0 h -19.92 c -4.181,0 -7.582,3.409 -7.582,7.599 0,4.172 3.385,7.58 7.53,7.599 h 19.971 c 1.962,0 3.554,1.595 3.554,3.562 0,1.968 -1.592,3.562 -3.554,3.562 H -19.988 C -28.051,22.286 -34.61,15.681 -34.61,7.599 c 0,-8.118 6.59,-14.723 14.69,-14.723 L 0,-7.125 c 4.181,0 7.582,-3.408 7.582,-7.598 0,-4.175 -3.388,-7.584 -7.54,-7.6 l -23.989,0.001 c -1.963,0 -3.554,-1.595 -3.554,-3.562 0,-1.968 1.591,-3.562 3.554,-3.562 H 0.056 c 8.069,0.029 14.635,6.634 14.635,14.723 C 14.691,-6.604 8.101,0 0,0"
         style="fill:#231f20;fill-opacity:1;fill-rule:nonzero;stroke:none"
         id="path146"
         inkscape:connector-curvature="0" />
    </g>
    <g
       id="g24"
       transform="matrix(0.14875784,0,0,-0.14875784,14.704336,283.12884)">
      <path
         d="M 0,0 3.043,-6.526 0,-13.052 -5.13,-24.05 l -9.396,-20.153 -3.043,6.526 z m 8.172,-17.524 9.397,-20.153 -3.043,-6.526 -9.397,20.153 z M 63.85,39.597 c 1.085,2.326 0.078,5.091 -2.248,6.176 -2.329,1.086 -5.094,0.08 -6.178,-2.248 L 44.745,20.618 42.021,14.776 C 40.875,16.557 39.648,18.28 38.346,19.943 25.83,35.916 6.383,46.21 -15.436,46.21 c -37.668,0 -68.312,-30.644 -68.312,-68.311 0,-6.659 0.976,-13.091 2.76,-19.181 l 6.743,14.461 c -0.124,1.559 -0.206,3.13 -0.206,4.72 0,32.541 26.474,59.015 59.015,59.015 20.581,0 38.723,-10.596 49.288,-26.611 1.232,-1.867 2.356,-3.81 3.374,-5.817 1.949,-3.845 3.497,-7.925 4.571,-12.195 0.788,-3.131 1.313,-6.363 1.577,-9.669 0.124,-1.56 0.205,-3.132 0.205,-4.723 0,-32.541 -26.474,-59.016 -59.015,-59.016 -20.58,0 -38.723,10.597 -49.289,26.613 -1.231,1.867 -2.355,3.81 -3.373,5.816 l 3.063,6.569 19.638,42.119 3.043,-6.525 -11.558,-24.539 c -1.085,-2.325 -0.078,-5.091 2.249,-6.176 0.635,-0.297 1.304,-0.437 1.961,-0.437 1.751,0 3.428,0.993 4.217,2.685 l 8.259,17.468 12.527,-26.863 2,-4.289 1.375,-2.949 c 1.246,-2.671 3.85,-4.33 6.798,-4.33 2.947,0 5.551,1.659 6.797,4.33 l 7.728,16.576 7.73,-16.576 c 1.245,-2.671 3.849,-4.33 6.796,-4.33 2.948,0 5.553,1.659 6.798,4.33 l 1.375,2.949 5.129,10.999 9.928,21.296 c -0.535,5.005 -1.769,9.801 -3.591,14.299 L 22.698,-26.678 13.301,-6.525 8.172,4.474 6.797,7.422 c -1.245,2.672 -3.851,4.331 -6.798,4.331 -2.947,0 -5.552,-1.66 -6.796,-4.331 L -22.698,-26.679 -33.965,-2.52 -38.6,7.422 c -1.246,2.672 -3.85,4.331 -6.797,4.331 -2.948,0 -5.552,-1.66 -6.797,-4.331 l -16.432,-35.243 -4.043,-8.671 -5.689,-12.202 -3.044,-6.53 -13.324,-28.575 c -1.085,-2.326 -0.079,-5.092 2.248,-6.177 2.328,-1.088 5.093,-0.079 6.178,2.249 l 10.681,22.909 2.724,5.842 c 1.147,-1.781 2.374,-3.505 3.676,-5.168 12.516,-15.974 31.964,-26.269 53.783,-26.269 37.667,0 68.313,30.644 68.313,68.312 0,6.66 -0.976,13.094 -2.762,19.184 -0.742,2.532 -1.61,5.01 -2.63,7.411 l 3.045,6.53 z"
         style="fill:#231f20;fill-opacity:1;fill-rule:nonzero;stroke:none"
         id="path26"
         inkscape:connector-curvature="0" />
    </g>
  </g>
</svg>
